<?xml version="1.0" encoding="UTF-8"?>
<!--Generator: Apple Native CoreSVG 149-->
<!DOCTYPE svg
PUBLIC "-//W3C//DTD SVG 1.1//EN"
       "http://www.w3.org/Graphics/SVG/1.1/DTD/svg11.dtd">
<svg version="1.1" xmlns="http://www.w3.org/2000/svg" xmlns:xlink="http://www.w3.org/1999/xlink" width="3300" height="2200">
 <!--glyph: "", point size: 100.0, font version: "17.0d9e1", template writer version: "59"-->
 <style>.multicolor-0:systemBlueColor {fill:#007AFF;opacity:1.0}

.SFSymbolsPreview007AFF {fill:#007AFF;opacity:1.0}
</style>
 <g id="Notes">
  <rect height="2200" id="artboard" style="fill:white;opacity:1" width="3300" x="0" y="0"/>
  <line style="fill:none;stroke:black;opacity:1;stroke-width:0.5;" x1="263" x2="3036" y1="292" y2="292"/>
  <text style="stroke:none;fill:black;font-family:sans-serif;font-size:13;font-weight:bold;" transform="matrix(1 0 0 1 263 322)">Weight/Scale Variations</text>
  <text style="stroke:none;fill:black;font-family:sans-serif;font-size:13;text-anchor:middle;" transform="matrix(1 0 0 1 559.711 322)">Ultralight</text>
  <text style="stroke:none;fill:black;font-family:sans-serif;font-size:13;text-anchor:middle;" transform="matrix(1 0 0 1 856.422 322)">Thin</text>
  <text style="stroke:none;fill:black;font-family:sans-serif;font-size:13;text-anchor:middle;" transform="matrix(1 0 0 1 1153.13 322)">Light</text>
  <text style="stroke:none;fill:black;font-family:sans-serif;font-size:13;text-anchor:middle;" transform="matrix(1 0 0 1 1449.84 322)">Regular</text>
  <text style="stroke:none;fill:black;font-family:sans-serif;font-size:13;text-anchor:middle;" transform="matrix(1 0 0 1 1746.56 322)">Medium</text>
  <text style="stroke:none;fill:black;font-family:sans-serif;font-size:13;text-anchor:middle;" transform="matrix(1 0 0 1 2043.27 322)">Semibold</text>
  <text style="stroke:none;fill:black;font-family:sans-serif;font-size:13;text-anchor:middle;" transform="matrix(1 0 0 1 2339.98 322)">Bold</text>
  <text style="stroke:none;fill:black;font-family:sans-serif;font-size:13;text-anchor:middle;" transform="matrix(1 0 0 1 2636.69 322)">Heavy</text>
  <text style="stroke:none;fill:black;font-family:sans-serif;font-size:13;text-anchor:middle;" transform="matrix(1 0 0 1 2933.4 322)">Black</text>
  <line style="fill:none;stroke:black;opacity:1;stroke-width:0.5;" x1="263" x2="3036" y1="1903" y2="1903"/>
  <g transform="matrix(1 0 0 1 263 1933)">
   <path d="M9.24805 0.830078Q10.8691 0.830078 12.2949 0.214844Q13.7207-0.400391 14.8096-1.49414Q15.8984-2.58789 16.5186-4.01367Q17.1387-5.43945 17.1387-7.05078Q17.1387-8.66211 16.5186-10.0879Q15.8984-11.5137 14.8047-12.6074Q13.7109-13.7012 12.2852-14.3164Q10.8594-14.9316 9.23828-14.9316Q7.62695-14.9316 6.20117-14.3164Q4.77539-13.7012 3.69141-12.6074Q2.60742-11.5137 1.9873-10.0879Q1.36719-8.66211 1.36719-7.05078Q1.36719-5.43945 1.9873-4.01367Q2.60742-2.58789 3.69629-1.49414Q4.78516-0.400391 6.21094 0.214844Q7.63672 0.830078 9.24805 0.830078ZM9.24805-0.654297Q7.91992-0.654297 6.7627-1.14746Q5.60547-1.64062 4.73145-2.51953Q3.85742-3.39844 3.36426-4.56055Q2.87109-5.72266 2.87109-7.05078Q2.87109-8.37891 3.35938-9.54102Q3.84766-10.7031 4.72168-11.582Q5.5957-12.4609 6.75293-12.9541Q7.91016-13.4473 9.23828-13.4473Q10.5762-13.4473 11.7334-12.9541Q12.8906-12.4609 13.7695-11.582Q14.6484-10.7031 15.1465-9.54102Q15.6445-8.37891 15.6445-7.05078Q15.6445-5.72266 15.1514-4.56055Q14.6582-3.39844 13.7842-2.51953Q12.9102-1.64062 11.748-1.14746Q10.5859-0.654297 9.24805-0.654297ZM5.83984-7.04102Q5.83984-6.71875 6.04492-6.51855Q6.25-6.31836 6.5918-6.31836L8.50586-6.31836L8.50586-4.39453Q8.50586-4.0625 8.70605-3.85742Q8.90625-3.65234 9.22852-3.65234Q9.56055-3.65234 9.76562-3.85742Q9.9707-4.0625 9.9707-4.39453L9.9707-6.31836L11.8945-6.31836Q12.2266-6.31836 12.4316-6.51855Q12.6367-6.71875 12.6367-7.04102Q12.6367-7.37305 12.4316-7.57812Q12.2266-7.7832 11.8945-7.7832L9.9707-7.7832L9.9707-9.69727Q9.9707-10.0391 9.76562-10.2441Q9.56055-10.4492 9.22852-10.4492Q8.90625-10.4492 8.70605-10.2441Q8.50586-10.0391 8.50586-9.69727L8.50586-7.7832L6.5918-7.7832Q6.25-7.7832 6.04492-7.57812Q5.83984-7.37305 5.83984-7.04102Z"/>
  </g>
  <g transform="matrix(1 0 0 1 281.867 1933)">
   <path d="M11.709 2.91016Q13.75 2.91016 15.5518 2.12891Q17.3535 1.34766 18.7305-0.0292969Q20.1074-1.40625 20.8887-3.20801Q21.6699-5.00977 21.6699-7.05078Q21.6699-9.0918 20.8887-10.8936Q20.1074-12.6953 18.7305-14.0723Q17.3535-15.4492 15.5469-16.2305Q13.7402-17.0117 11.6992-17.0117Q9.6582-17.0117 7.85645-16.2305Q6.05469-15.4492 4.68262-14.0723Q3.31055-12.6953 2.5293-10.8936Q1.74805-9.0918 1.74805-7.05078Q1.74805-5.00977 2.5293-3.20801Q3.31055-1.40625 4.6875-0.0292969Q6.06445 1.34766 7.86621 2.12891Q9.66797 2.91016 11.709 2.91016ZM11.709 1.25Q9.98047 1.25 8.47656 0.605469Q6.97266-0.0390625 5.83496-1.17676Q4.69727-2.31445 4.05762-3.81836Q3.41797-5.32227 3.41797-7.05078Q3.41797-8.7793 4.05762-10.2832Q4.69727-11.7871 5.83008-12.9297Q6.96289-14.0723 8.4668-14.7119Q9.9707-15.3516 11.6992-15.3516Q13.4277-15.3516 14.9316-14.7119Q16.4355-14.0723 17.5781-12.9297Q18.7207-11.7871 19.3652-10.2832Q20.0098-8.7793 20.0098-7.05078Q20.0098-5.32227 19.3701-3.81836Q18.7305-2.31445 17.5928-1.17676Q16.4551-0.0390625 14.9463 0.605469Q13.4375 1.25 11.709 1.25ZM7.39258-7.04102Q7.39258-6.68945 7.62695-6.46484Q7.86133-6.24023 8.23242-6.24023L10.8789-6.24023L10.8789-3.57422Q10.8789-3.21289 11.1035-2.9834Q11.3281-2.75391 11.6797-2.75391Q12.0508-2.75391 12.2852-2.9834Q12.5195-3.21289 12.5195-3.57422L12.5195-6.24023L15.1758-6.24023Q15.5371-6.24023 15.7715-6.46484Q16.0059-6.68945 16.0059-7.04102Q16.0059-7.41211 15.7715-7.6416Q15.5371-7.87109 15.1758-7.87109L12.5195-7.87109L12.5195-10.5176Q12.5195-10.8984 12.2852-11.1279Q12.0508-11.3574 11.6797-11.3574Q11.3281-11.3574 11.1035-11.1279Q10.8789-10.8984 10.8789-10.5176L10.8789-7.87109L8.23242-7.87109Q7.85156-7.87109 7.62207-7.6416Q7.39258-7.41211 7.39258-7.04102Z"/>
  </g>
  <g transform="matrix(1 0 0 1 305.646 1933)">
   <path d="M14.9707 5.66406Q17.0605 5.66406 18.96 5.01465Q20.8594 4.36523 22.4512 3.19336Q24.043 2.02148 25.2197 0.429688Q26.3965-1.16211 27.0459-3.06641Q27.6953-4.9707 27.6953-7.05078Q27.6953-9.14062 27.0459-11.04Q26.3965-12.9395 25.2197-14.5312Q24.043-16.123 22.4512-17.2998Q20.8594-18.4766 18.9551-19.126Q17.0508-19.7754 14.9609-19.7754Q12.8711-19.7754 10.9717-19.126Q9.07227-18.4766 7.48535-17.2998Q5.89844-16.123 4.72168-14.5312Q3.54492-12.9395 2.90039-11.04Q2.25586-9.14062 2.25586-7.05078Q2.25586-4.9707 2.90527-3.06641Q3.55469-1.16211 4.72656 0.429688Q5.89844 2.02148 7.49023 3.19336Q9.08203 4.36523 10.9814 5.01465Q12.8809 5.66406 14.9707 5.66406ZM14.9707 3.84766Q13.1641 3.84766 11.5283 3.2959Q9.89258 2.74414 8.53516 1.74805Q7.17773 0.751953 6.17676-0.610352Q5.17578-1.97266 4.62891-3.6084Q4.08203-5.24414 4.08203-7.05078Q4.08203-8.86719 4.62891-10.5029Q5.17578-12.1387 6.17188-13.501Q7.16797-14.8633 8.52539-15.8594Q9.88281-16.8555 11.5186-17.4023Q13.1543-17.9492 14.9609-17.9492Q16.7773-17.9492 18.4131-17.4023Q20.0488-16.8555 21.4111-15.8594Q22.7734-14.8633 23.7695-13.501Q24.7656-12.1387 25.3174-10.5029Q25.8691-8.86719 25.8691-7.05078Q25.8789-5.24414 25.332-3.6084Q24.7852-1.97266 23.7842-0.610352Q22.7832 0.751953 21.4209 1.74805Q20.0586 2.74414 18.4229 3.2959Q16.7871 3.84766 14.9707 3.84766ZM9.45312-7.04102Q9.45312-6.66016 9.71191-6.41113Q9.9707-6.16211 10.3711-6.16211L14.0625-6.16211L14.0625-2.46094Q14.0625-2.06055 14.3115-1.80664Q14.5605-1.55273 14.9414-1.55273Q15.3516-1.55273 15.6055-1.80664Q15.8594-2.06055 15.8594-2.46094L15.8594-6.16211L19.5605-6.16211Q19.9609-6.16211 20.2148-6.41113Q20.4688-6.66016 20.4688-7.04102Q20.4688-7.45117 20.2148-7.70508Q19.9609-7.95898 19.5605-7.95898L15.8594-7.95898L15.8594-11.6504Q15.8594-12.0605 15.6055-12.3145Q15.3516-12.5684 14.9414-12.5684Q14.5605-12.5684 14.3115-12.3096Q14.0625-12.0508 14.0625-11.6504L14.0625-7.95898L10.3711-7.95898Q9.96094-7.95898 9.70703-7.70508Q9.45312-7.45117 9.45312-7.04102Z"/>
  </g>
  <text style="stroke:none;fill:black;font-family:sans-serif;font-size:13;font-weight:bold;" transform="matrix(1 0 0 1 263 1953)">Design Variations</text>
  <text style="stroke:none;fill:black;font-family:sans-serif;font-size:13;" transform="matrix(1 0 0 1 263 1971)">Symbols are supported in up to nine weights and three scales.</text>
  <text style="stroke:none;fill:black;font-family:sans-serif;font-size:13;" transform="matrix(1 0 0 1 263 1989)">For optimal layout with text and other symbols, vertically align</text>
  <text style="stroke:none;fill:black;font-family:sans-serif;font-size:13;" transform="matrix(1 0 0 1 263 2007)">symbols with the adjacent text.</text>
  <line style="fill:none;stroke:#00AEEF;stroke-width:0.5;opacity:1.0;" x1="776" x2="776" y1="1919" y2="1933"/>
  <g transform="matrix(1 0 0 1 776 1933)">
   <path d="M3.31055 0.15625Q3.70117 0.15625 3.91602-0.00976562Q4.13086-0.175781 4.26758-0.585938L5.52734-4.0332L11.2891-4.0332L12.5488-0.585938Q12.6855-0.175781 12.9004-0.00976562Q13.1152 0.15625 13.4961 0.15625Q13.8867 0.15625 14.1162-0.0585938Q14.3457-0.273438 14.3457-0.644531Q14.3457-0.869141 14.2383-1.17188L9.6582-13.3691Q9.48242-13.8184 9.17969-14.043Q8.87695-14.2676 8.4082-14.2676Q7.5-14.2676 7.17773-13.3789L2.59766-1.16211Q2.49023-0.859375 2.49023-0.634766Q2.49023-0.263672 2.70996-0.0537109Q2.92969 0.15625 3.31055 0.15625ZM6.00586-5.51758L8.37891-12.0898L8.42773-12.0898L10.8008-5.51758Z"/>
  </g>
  <line style="fill:none;stroke:#00AEEF;stroke-width:0.5;opacity:1.0;" x1="793.197" x2="793.197" y1="1919" y2="1933"/>
  <text style="stroke:none;fill:black;font-family:sans-serif;font-size:13;font-weight:bold;" transform="matrix(1 0 0 1 776 1953)">Margins</text>
  <text style="stroke:none;fill:black;font-family:sans-serif;font-size:13;" transform="matrix(1 0 0 1 776 1971)">Leading and trailing margins on the left and right side of each symbol</text>
  <text style="stroke:none;fill:black;font-family:sans-serif;font-size:13;" transform="matrix(1 0 0 1 776 1989)">can be adjusted by modifying the x-location of the margin guidelines.</text>
  <text style="stroke:none;fill:black;font-family:sans-serif;font-size:13;" transform="matrix(1 0 0 1 776 2007)">Modifications are automatically applied proportionally to all</text>
  <text style="stroke:none;fill:black;font-family:sans-serif;font-size:13;" transform="matrix(1 0 0 1 776 2025)">scales and weights.</text>
  <g transform="matrix(1 0 0 1 1289 1933)">
   <path d="M2.8418 1.86523L4.54102 3.57422Q5.18555 4.22852 5.90332 4.17969Q6.62109 4.13086 7.31445 3.35938L18.0078-8.42773L17.041-9.4043L6.42578 2.27539Q6.16211 2.57812 5.89355 2.61719Q5.625 2.65625 5.27344 2.30469L4.10156 1.14258Q3.75 0.791016 3.79395 0.522461Q3.83789 0.253906 4.14062-0.0195312L15.6152-10.8203L14.6387-11.7871L3.04688-0.898438Q2.30469-0.214844 2.25098 0.498047Q2.19727 1.21094 2.8418 1.86523ZM9.25781-16.3281Q8.94531-16.0254 8.90625-15.6348Q8.86719-15.2441 9.04297-14.9512Q9.21875-14.6777 9.55566-14.541Q9.89258-14.4043 10.3809-14.5215Q11.4746-14.7754 12.5977-14.7314Q13.7207-14.6875 14.7949-13.9844L14.209-12.5293Q13.9551-11.9043 14.0674-11.4404Q14.1797-10.9766 14.5801-10.5664L16.875-8.25195Q17.2363-7.88086 17.5781-7.82227Q17.9199-7.76367 18.3398-7.8418L19.4043-8.03711L20.0684-7.36328L20.0293-6.80664Q20-6.43555 20.1221-6.12305Q20.2441-5.81055 20.6055-5.44922L21.3672-4.70703Q21.7285-4.3457 22.1533-4.33105Q22.5781-4.31641 22.9297-4.66797L25.8398-7.58789Q26.1914-7.93945 26.1816-8.35449Q26.1719-8.76953 25.8105-9.13086L25.0391-9.89258Q24.6875-10.2539 24.3799-10.3857Q24.0723-10.5176 23.7109-10.4883L23.1348-10.4395L22.4902-11.0742L22.7344-12.1973Q22.832-12.6172 22.6953-12.9834Q22.5586-13.3496 22.1191-13.7891L19.9219-15.9766Q18.6719-17.2168 17.2607-17.8369Q15.8496-18.457 14.4189-18.4814Q12.9883-18.5059 11.665-17.959Q10.3418-17.4121 9.25781-16.3281ZM10.752-15.957Q11.6602-16.6211 12.7002-16.9043Q13.7402-17.1875 14.8047-17.085Q15.8691-16.9824 16.8701-16.5137Q17.8711-16.0449 18.7012-15.2051L21.1328-12.793Q21.3086-12.6172 21.3525-12.4512Q21.3965-12.2852 21.3379-12.0312L21.0156-10.5469L22.5195-9.0625L23.5059-9.12109Q23.6914-9.13086 23.7891-9.09668Q23.8867-9.0625 24.0332-8.91602L24.6094-8.33984L22.168-5.89844L21.5918-6.47461Q21.4453-6.62109 21.4062-6.71875Q21.3672-6.81641 21.377-7.01172L21.4453-7.98828L19.9512-9.47266L18.4277-9.21875Q18.1836-9.16992 18.042-9.2041Q17.9004-9.23828 17.7148-9.41406L15.7129-11.416Q15.5176-11.5918 15.4932-11.7529Q15.4688-11.9141 15.5859-12.1875L16.4648-14.2773Q15.293-15.3711 13.8281-15.791Q12.3633-16.2109 10.8398-15.7617Q10.7227-15.7324 10.6885-15.8057Q10.6543-15.8789 10.752-15.957Z"/>
  </g>
  <text style="stroke:none;fill:black;font-family:sans-serif;font-size:13;font-weight:bold;" transform="matrix(1 0 0 1 1289 1953)">Exporting</text>
  <text style="stroke:none;fill:black;font-family:sans-serif;font-size:13;" transform="matrix(1 0 0 1 1289 1971)">Symbols should be outlined when exporting to ensure the</text>
  <text style="stroke:none;fill:black;font-family:sans-serif;font-size:13;" transform="matrix(1 0 0 1 1289 1989)">design is preserved when submitting to Xcode.</text>
  <text id="template-version" style="stroke:none;fill:black;font-family:sans-serif;font-size:13;text-anchor:end;" transform="matrix(1 0 0 1 3036 1933)">Template v.3.0</text>
  <text style="stroke:none;fill:black;font-family:sans-serif;font-size:13;text-anchor:end;" transform="matrix(1 0 0 1 3036 1951)">Requires Xcode 13 or greater</text>
  <text id="descriptive-name" style="stroke:none;fill:black;font-family:sans-serif;font-size:13;text-anchor:end;" transform="matrix(1 0 0 1 3036 1969)">Generated from logo.appstore</text>
  <text style="stroke:none;fill:black;font-family:sans-serif;font-size:13;text-anchor:end;" transform="matrix(1 0 0 1 3036 1987)">Typeset at 100 points</text>
  <text style="stroke:none;fill:black;font-family:sans-serif;font-size:13;" transform="matrix(1 0 0 1 263 726)">Small</text>
  <text style="stroke:none;fill:black;font-family:sans-serif;font-size:13;" transform="matrix(1 0 0 1 263 1156)">Medium</text>
  <text style="stroke:none;fill:black;font-family:sans-serif;font-size:13;" transform="matrix(1 0 0 1 263 1586)">Large</text>
 </g>
 <g id="Guides">
  <g id="H-reference" style="fill:#27AAE1;stroke:none;" transform="matrix(1 0 0 1 339 696)">
   <path d="M0.976562 0L3.66211 0L29.3457-67.1387L30.0293-67.1387L30.0293-70.459L28.125-70.459ZM11.6699-24.4629L46.9727-24.4629L46.2402-26.709L12.4512-26.709ZM55.127 0L57.7637 0L30.6152-70.459L29.4434-70.459L29.4434-67.1387Z"/>
  </g>
  <line id="Baseline-S" style="fill:none;stroke:#27AAE1;opacity:1;stroke-width:0.5;" x1="263" x2="3036" y1="696" y2="696"/>
  <line id="Capline-S" style="fill:none;stroke:#27AAE1;opacity:1;stroke-width:0.5;" x1="263" x2="3036" y1="625.541" y2="625.541"/>
  <g id="H-reference" style="fill:#27AAE1;stroke:none;" transform="matrix(1 0 0 1 339 1126)">
   <path d="M0.976562 0L3.66211 0L29.3457-67.1387L30.0293-67.1387L30.0293-70.459L28.125-70.459ZM11.6699-24.4629L46.9727-24.4629L46.2402-26.709L12.4512-26.709ZM55.127 0L57.7637 0L30.6152-70.459L29.4434-70.459L29.4434-67.1387Z"/>
  </g>
  <line id="Baseline-M" style="fill:none;stroke:#27AAE1;opacity:1;stroke-width:0.5;" x1="263" x2="3036" y1="1126" y2="1126"/>
  <line id="Capline-M" style="fill:none;stroke:#27AAE1;opacity:1;stroke-width:0.5;" x1="263" x2="3036" y1="1055.54" y2="1055.54"/>
  <g id="H-reference" style="fill:#27AAE1;stroke:none;" transform="matrix(1 0 0 1 339 1556)">
   <path d="M0.976562 0L3.66211 0L29.3457-67.1387L30.0293-67.1387L30.0293-70.459L28.125-70.459ZM11.6699-24.4629L46.9727-24.4629L46.2402-26.709L12.4512-26.709ZM55.127 0L57.7637 0L30.6152-70.459L29.4434-70.459L29.4434-67.1387Z"/>
  </g>
  <line id="Baseline-L" style="fill:none;stroke:#27AAE1;opacity:1;stroke-width:0.5;" x1="263" x2="3036" y1="1556" y2="1556"/>
  <line id="Capline-L" style="fill:none;stroke:#27AAE1;opacity:1;stroke-width:0.5;" x1="263" x2="3036" y1="1485.54" y2="1485.54"/>
  <line id="left-margin-Regular-M" style="fill:none;stroke:#00AEEF;stroke-width:0.5;opacity:1.0;" x1="1381.92" x2="1381.92" y1="1030.73" y2="1150.14"/>
  <line id="right-margin-Regular-M" style="fill:none;stroke:#00AEEF;stroke-width:0.5;opacity:1.0;" x1="1517.77" x2="1517.77" y1="1030.73" y2="1150.14"/>
 </g>
 <g id="Symbols">
  <g id="Black-L" transform="matrix(1 0 0 1 2842.12 1556)">
   <path class="multicolor-0:systemBlueColor SFSymbolsPreview007AFF" d="M90.9729-90.9798L95.21-98.3436C97.8425-102.91 103.562-104.39 108.171-101.8C112.737-99.1671 114.217-93.4477 111.627-88.8387L70.9802-18.41L100.313-18.41C109.818-18.41 115.205-7.26074 110.971 0.597142L25.0629 0.597142C19.8376 0.597142 15.5607-3.63997 15.5607-8.90511C15.5607-14.1702 19.7978-18.4074 25.0629-18.4074L49.1731-18.4074L80.1079-71.9727L70.441-88.7191C67.8084-93.2856 69.3332-99.0448 73.897-101.68C78.4636-104.313 84.2228-102.788 86.858-98.224L90.9729-90.9798L90.9729-90.9798ZM54.4409 10.2667L45.268 26.0249C42.6355 30.5915 36.9161 32.0711 32.3071 29.481C27.8628 26.9681 26.2609 21.129 28.851 16.6423L35.6011 4.99896C43.2916 2.53109 49.5025 4.34016 54.4409 10.2667L54.4409 10.2667ZM132.892-18.4074L157.616-18.4074C162.841-18.4074 167.118-14.1702 167.118-8.90511C167.118-3.63997 162.881 0.597142 157.616 0.597142L143.877 0.597142L153.052 16.6397C155.685 21.2062 154.16 26.9654 149.596 29.6006C145.03 32.2332 139.27 30.7084 136.635 26.1446C121.084-0.882523 109.441-21.0426 101.586-34.4976C93.6852-48.237 99.2824-62.0188 104.88-66.5853C111.253-56.0498 120.47-39.885 132.892-18.4074L132.892-18.4074Z"/>
  </g>
  <g id="Heavy-L" transform="matrix(1 0 0 1 2546.33 1556)">
   <path class="multicolor-0:systemBlueColor SFSymbolsPreview007AFF" d="M90.0698-90.7212L94.2787-98.047C96.9015-102.585 102.593-104.055 107.192-101.493C111.73-98.8705 113.2-93.1793 110.638-88.5801L70.1724-18.4939L99.372-18.4939C108.839-18.4939 114.188-7.39234 109.992 0.42759L24.4362 0.42759C19.2391 0.42759 14.9817-3.7813 14.9817-9.02698C14.9817-14.2727 19.1905-18.4815 24.4362-18.4815L48.4511-18.4815L79.2243-71.7997L69.605-88.4887C66.9822-93.027 68.5254-98.7667 73.0514-101.402C77.5897-104.025 83.3294-102.482 85.9646-97.9556L90.0698-90.7212L90.0698-90.7212ZM53.7091 10.0592L44.5839 25.76C41.9611 30.2983 36.2699 31.7682 31.6707 29.2064C27.2361 26.6749 25.6624 20.8923 28.2243 16.3968L34.9647 4.80118C42.6075 2.34304 48.7805 4.14238 53.7091 10.0592L53.7091 10.0592ZM131.78-18.4815L156.38-18.4815C161.577-18.4815 165.835-14.2727 165.835-9.02698C165.835-3.7813 161.626 0.42759 156.38 0.42759L142.717 0.42759L151.854 16.3845C154.477 20.9228 152.934 26.6625 148.408 29.2977C143.87 31.9206 138.13 30.3773 135.495 25.8514C120.02-1.04235 108.424-21.1167 100.616-34.5241C92.7354-48.1876 98.3229-61.912 103.91-66.4503C110.236-55.9342 119.434-39.8735 131.78-18.4815L131.78-18.4815Z"/>
  </g>
  <g id="Bold-L" transform="matrix(1 0 0 1 2250.76 1556)">
   <path class="multicolor-0:systemBlueColor SFSymbolsPreview007AFF" d="M88.9382-90.374L93.1156-97.6515C95.7216-102.158 101.381-103.611 105.964-101.081C110.47-98.475 111.924-92.8154 109.393-88.2329L69.1712-18.6007L98.1921-18.6007C107.611-18.6007 112.912-7.56423 108.764 0.20734L23.6787 0.20734C18.5132 0.20734 14.2892-3.96997 14.2892-9.1821C14.2892-14.3942 18.4666-18.5715 23.6787-18.5715L47.5633-18.5715L78.1263-71.566L68.5722-88.1731C65.9661-92.6798 67.5242-98.386 72.0017-101.021C76.5085-103.627 82.2147-102.069 84.8499-97.5917L88.9382-90.374L88.9382-90.374ZM52.8045 9.79061L43.7445 25.4095C41.1384 29.9162 35.4788 31.3694 30.8963 28.8391C26.4786 26.2928 24.9365 20.5734 27.4668 16.0799L34.1903 4.54935C41.7681 2.10798 47.8927 3.89055 52.8045 9.79061L52.8045 9.79061ZM130.373-18.5715L154.812-18.5715C159.977-18.5715 164.201-14.3942 164.201-9.1821C164.201-3.96997 160.024 0.20734 154.812 0.20734L141.245 0.20734L150.334 16.0508C152.94 20.5575 151.382 26.2637 146.904 28.8989C142.398 31.505 136.691 29.9469 134.056 25.4693C118.678-1.24582 107.147-21.2067 99.4048-34.549C91.5575-48.1157 97.1282-61.7582 102.699-66.2649C108.959-55.7824 118.124-39.85 130.373-18.5715L130.373-18.5715Z"/>
  </g>
  <g id="Semibold-L" transform="matrix(1 0 0 1 1954.83 1556)">
   <path class="multicolor-0:systemBlueColor SFSymbolsPreview007AFF" d="M88.1582-90.1347L92.3137-97.3788C94.9082-101.864 100.546-103.305 105.117-100.797C109.602-98.2023 111.043-92.5645 108.535-87.9936L68.4809-18.6743L97.3787-18.6743C106.764-18.6743 112.032-7.68274 107.917 0.0555012L23.1564 0.0555012C18.0127 0.0555012 13.8119-4.10004 13.8119-9.28904C13.8119-14.478 17.9674-18.6336 23.1564-18.6336L46.9512-18.6336L77.3694-71.4049L67.8601-87.9556C65.2656-92.4405 66.8339-98.1236 71.2781-100.759C75.7631-103.353 81.4462-101.785 84.0814-97.3408L88.1582-90.1347L88.1582-90.1347ZM52.1809 9.60544L43.1658 25.1679C40.5713 29.6528 34.9334 31.0944 30.3625 28.5859C25.9563 26.0294 24.436 20.3535 26.9445 15.8614L33.6565 4.37574C41.1894 1.94594 47.2806 3.71694 52.1809 9.60544L52.1809 9.60544ZM129.403-18.6336L153.73-18.6336C158.874-18.6336 163.075-14.478 163.075-9.28904C163.075-4.10004 158.919 0.0555012 153.73 0.0555012L140.23 0.0555012L149.286 15.8207C151.88 20.3056 150.312 25.9887 145.868 28.6239C141.383 31.2184 135.7 29.6502 133.065 25.2059C117.753-1.3861 106.267-21.2688 98.5697-34.5661C90.7455-48.0662 96.3046-61.6522 101.864-66.1372C108.079-55.6778 117.221-39.8339 129.403-18.6336L129.403-18.6336Z"/>
  </g>
  <g id="Medium-L" transform="matrix(1 0 0 1 1658.72 1556)">
   <path class="multicolor-0:systemBlueColor SFSymbolsPreview007AFF" d="M87.5667-89.9532L91.7057-97.1721C94.2915-101.641 99.9128-103.073 104.475-100.581C108.943-97.9956 110.376-92.3743 107.884-87.8121L67.9575-18.7301L96.762-18.7301C106.122-18.7301 111.364-7.77259 107.275-0.0596295L22.7605-0.0596295C17.6332-0.0596295 13.45-4.19866 13.45-9.37013C13.45-14.5416 17.589-18.6806 22.7605-18.6806L46.4871-18.6806L76.7954-71.2828L67.3202-87.7906C64.7345-92.259 66.3105-97.9246 70.7295-100.56C75.1979-103.146 80.8635-101.57 83.4987-97.1506L87.5667-89.9532L87.5667-89.9532ZM51.7081 9.46503L42.727 24.9847C40.1413 29.4531 34.5199 30.8859 29.9578 28.3939C25.5604 25.8297 24.0565 20.1868 26.5486 15.6957L33.2518 4.2441C40.7506 1.82307 46.8165 3.5853 51.7081 9.46503L51.7081 9.46503ZM128.668-18.6806L152.91-18.6806C158.037-18.6806 162.221-14.5416 162.221-9.37013C162.221-4.19866 158.082-0.0596295 152.91-0.0596295L139.461-0.0596295L148.491 15.6462C151.077 20.1147 149.501 25.7802 145.082 28.4154C140.613 31.0012 134.948 29.4252 132.313 25.0062C117.051-1.49246 105.6-21.3158 97.9364-34.5791C90.1297-48.0286 95.6801-61.5719 101.23-66.0403C107.412-55.5984 116.536-39.8216 128.668-18.6806L128.668-18.6806Z"/>
  </g>
  <g id="Regular-L" transform="matrix(1 0 0 1 1362.78 1556)">
   <path class="multicolor-0:systemBlueColor SFSymbolsPreview007AFF" d="M86.7952-89.7165L90.9127-96.9024C93.487-101.349 99.0868-102.771 103.637-100.3C108.084-97.7259 109.506-92.1261 107.035-87.5754L67.2748-18.8029L95.9575-18.8029C105.284-18.8029 110.494-7.8898 106.437-0.2098L22.244-0.2098C17.1383-0.2098 12.9779-4.3273 12.9779-9.47589C12.9779-14.6245 17.0954-18.742 22.244-18.742L45.8818-18.742L76.0468-71.1234L66.616-87.5754C64.0417-92.0223 65.6278-97.665 70.0138-100.3C74.4607-102.875 80.1034-101.288 82.7386-96.9024L86.7952-89.7165L86.7952-89.7165ZM51.0913 9.2819L42.1546 24.7457C39.5803 29.1926 33.9805 30.614 29.4298 28.1435C25.0439 25.5692 23.5616 19.9694 26.0321 15.4796L32.7238 4.0724C40.1782 1.6628 46.2112 3.4136 51.0913 9.2819L51.0913 9.2819ZM127.709-18.742L151.841-18.742C156.946-18.742 161.107-14.6245 161.107-9.47589C161.107-4.3273 156.989-0.2098 151.841-0.2098L138.457-0.2098L147.455 15.4187C150.029 19.8656 148.443 25.5083 144.057 28.1435C139.61 30.7178 133.967 29.1317 131.332 24.7457C116.137-1.6312 104.729-21.3772 97.1104-34.5961C89.3266-47.9797 94.8655-61.467 100.404-65.9139C106.541-55.495 115.643-39.8056 127.709-18.742L127.709-18.742Z"/>
  </g>
  <g id="Light-L" transform="matrix(1 0 0 1 1066.91 1556)">
   <path class="multicolor-0:systemBlueColor SFSymbolsPreview007AFF" d="M85.9302-89.3042L90.0477-96.448C92.58-100.895 98.1798-102.274 102.688-99.8038C107.135-97.2715 108.515-91.6717 106.044-87.1631L66.578-18.8949L95.0505-18.8949C104.335-18.8949 109.503-8.06583 105.488-0.427862L21.8413-0.427862C16.7356-0.427862 12.6593-4.54536 12.6593-9.6099C12.6593-14.6744 16.7768-18.7919 21.8413-18.7919L45.3111-18.7919L75.2659-70.8372L65.9192-87.1631C63.3869-91.61 64.931-97.1686 69.2749-99.8038C73.7218-102.336 79.2805-100.792 81.9157-96.448L85.9302-89.3042L85.9302-89.3042ZM50.4785 9.0218L41.6259 24.3595C39.0936 28.8064 33.4938 30.1858 28.9852 27.7153C24.6412 25.183 23.1589 19.5832 25.6294 15.1775L32.2792 3.85434C39.6495 1.48677 45.6405 3.19554 50.4785 9.0218L50.4785 9.0218ZM126.549-18.7919L150.513-18.7919C155.619-18.7919 159.695-14.6744 159.695-9.6099C159.695-4.54536 155.578-0.427862 150.513-0.427862L137.214-0.427862L146.169 15.0745C148.702 19.5214 147.158 25.0801 142.814 27.7153C138.367 30.2475 132.808 28.7035 130.173 24.3595C115.062-1.80723 103.738-21.4271 96.2034-34.562C88.5037-47.8615 94.0005-61.2228 99.4974-65.6697C105.55-55.3348 114.567-39.7294 126.549-18.7919L126.549-18.7919Z"/>
  </g>
  <g id="Thin-L" transform="matrix(1 0 0 1 771.313 1556)">
   <path class="multicolor-0:systemBlueColor SFSymbolsPreview007AFF" d="M84.7863-88.7588L88.9038-95.847C91.3805-100.294 96.9803-101.618 101.433-99.1472C105.88-96.6705 107.204-91.0707 104.734-86.6177L65.6564-19.0165L93.851-19.0165C103.08-19.0165 108.192-8.29865 104.233-0.716267L21.3088-0.716267C16.2031-0.716267 12.2379-4.83377 12.2379-9.78713C12.2379-14.7405 16.3554-18.858 21.3088-18.858L44.5562-18.858L74.2331-70.4585L64.9976-86.6177C62.5209-91.0646 64.0094-96.512 68.2977-99.1472C72.7446-101.624 78.1921-100.135 80.8273-95.847L84.7863-88.7588L84.7863-88.7588ZM49.6681 8.67781L40.9266 23.8488C38.45 28.2957 32.8502 29.6194 28.3971 27.1489C24.1087 24.6723 22.6264 19.0725 25.0969 14.7779L31.6911 3.56593C38.9502 1.25395 44.8856 2.90713 49.6681 8.67781L49.6681 8.67781ZM125.016-18.858L148.758-18.858C153.864-18.858 157.829-14.7405 157.829-9.78713C157.829-4.83377 153.711-0.716267 148.758-0.716267L135.569-0.716267L144.469 14.6194C146.946 19.0663 145.458 24.5137 141.169 27.1489C136.722 29.6256 131.275 28.1371 128.64 23.8488C113.64-2.04005 102.428-21.4932 95.0039-34.5168C87.4153-47.7052 92.8566-60.8997 98.2979-65.3466C104.239-55.1229 113.146-39.6287 125.016-18.858L125.016-18.858Z"/>
  </g>
  <g id="Ultralight-L" transform="matrix(1 0 0 1 475.172 1556)">
   <path class="multicolor-0:systemBlueColor SFSymbolsPreview007AFF" d="M84.2003-88.4794L88.3178-95.5392C90.766-99.9861 96.3658-101.281 100.79-98.8109C105.237-96.3627 106.533-90.7629 104.062-86.3383L65.1843-19.0788L93.2365-19.0788C102.437-19.0788 107.521-8.4179 103.59-0.863987L21.036-0.863987C15.9303-0.863987 12.0221-4.98149 12.0221-9.8779C12.0221-14.7743 16.1396-18.8918 21.036-18.8918L44.1696-18.8918L73.7041-70.2646L64.5255-86.3383C62.0773-90.7852 63.5373-96.1757 67.7972-98.8109C72.2441-101.259 77.6346-99.7991 80.2698-95.5392L84.2003-88.4794L84.2003-88.4794ZM49.253 8.50162L40.5685 23.5871C38.1203 28.034 32.5205 29.3294 28.0958 26.8589C23.8359 24.4106 22.3536 18.8108 24.8241 14.5732L31.3898 3.41821C38.5921 1.1347 44.499 2.75941 49.253 8.50162L49.253 8.50162ZM124.231-18.8918L147.859-18.8918C152.964-18.8918 156.873-14.7743 156.873-9.8779C156.873-4.98149 152.755-0.863987 147.859-0.863987L134.727-0.863987L143.599 14.3862C146.047 18.8331 144.587 24.2237 140.327 26.8589C135.88 29.3071 130.49 27.8471 127.854 23.5871C112.911-2.1593 101.756-21.527 94.3894-34.4937C86.8578-47.6252 92.2706-60.7343 97.6834-65.1812C103.568-55.0144 112.417-39.5771 124.231-18.8918L124.231-18.8918Z"/>
  </g>
  <g id="Black-M" transform="matrix(1 0 0 1 2862.01 1126)">
   <path class="multicolor-0:systemBlueColor SFSymbolsPreview007AFF" d="M71.1394-78.5926L74.4464-84.3246C76.4886-87.8867 80.9439-89.0357 84.5173-87.0048C88.0795-84.9626 89.2285-80.5072 87.1976-76.9338L55.5911-22.1437L78.4026-22.1437C85.7933-22.1437 89.9941-13.4763 86.6865-7.36154L19.9014-7.36154C15.8288-7.36154 12.51-10.6685 12.51-14.7529C12.51-18.8374 15.8169-22.1443 19.9014-22.1443L38.6397-22.1443L62.7166-63.8105L55.1976-76.8169C53.1554-80.379 54.3151-84.8463 57.8778-86.8879C61.44-88.9301 65.9072-87.7704 67.9488-84.2076L71.1394-78.5926L71.1394-78.5926ZM42.7236 0.156815L35.5874 12.3976C33.5452 15.9598 29.0898 17.1088 25.5164 15.0778C22.0706 13.1526 20.8052 8.58028 22.8362 5.12317L28.0684-3.92701C34.0562-5.84163 38.8949-4.43741 42.7236 0.156815L42.7236 0.156815ZM103.756-22.1443L122.994-22.1443C127.067-22.1443 130.386-18.8374 130.386-14.7529C130.386-10.6685 127.079-7.36154 122.994-7.36154L112.296-7.36154L119.431 5.12379C121.474 8.68593 120.314 13.1532 116.751 15.1948C113.189 17.237 108.722 16.0773 106.68 12.5146C94.5783-8.51057 85.5281-24.1859 79.4127-34.6397C73.2867-45.338 77.6257-56.0476 81.9647-59.6097C86.9317-51.4421 94.0785-38.8404 103.756-22.1443L103.756-22.1443Z"/>
  </g>
  <g id="Heavy-M" transform="matrix(1 0 0 1 2566.12 1126)">
   <path class="multicolor-0:systemBlueColor SFSymbolsPreview007AFF" d="M70.3364-78.3778L73.6157-84.0766C75.6523-87.6111 80.0801-88.7545 83.6479-86.7512C87.1824-84.7146 88.3258-80.2868 86.3225-76.719L54.8658-22.2172L77.5663-22.2172C84.9239-22.2172 89.0914-13.5887 85.8171-7.50717L19.3259-7.50717C15.2809-7.50717 11.9733-10.7865 11.9733-14.8597C11.9733-18.9329 15.2527-22.2122 19.3259-22.2122L37.9865-22.2122L61.9248-63.6678L54.4447-76.6297C52.4081-80.1642 53.5898-84.6202 57.1193-86.6618C60.6538-88.6984 65.1098-87.5168 67.1514-83.9872L70.3364-78.3778L70.3364-78.3778ZM42.0647-0.0220436L34.9674 12.1743C32.9308 15.7088 28.503 16.8522 24.9353 14.8489C21.4951 12.9016 20.2573 8.38453 22.2607 4.91109L27.4873-4.10024C33.4362-6.00923 38.2417-4.61064 42.0647-0.0220436L42.0647-0.0220436ZM102.776-22.2122L121.908-22.2122C125.953-22.2122 129.261-18.9329 129.261-14.8597C129.261-10.7865 125.982-7.50717 121.908-7.50717L111.277-7.50717L118.379 4.90608C120.415 8.44062 119.234 12.8966 115.704 14.9382C112.17 16.9748 107.714 15.7931 105.672 12.2636C93.6367-8.65057 84.6254-24.2538 78.5489-34.6687C72.4341-45.3006 76.7675-55.9657 81.1009-59.5003C86.029-51.3439 93.1646-38.8363 102.776-22.2122L102.776-22.2122Z"/>
  </g>
  <g id="Bold-M" transform="matrix(1 0 0 1 2270.32 1126)">
   <path class="multicolor-0:systemBlueColor SFSymbolsPreview007AFF" d="M69.4381-78.1376L72.6866-83.7991C74.7169-87.3028 79.1137-88.4399 82.6752-86.4674C86.1789-84.4371 87.316-80.0403 85.3435-76.4788L54.0544-22.2995L76.6309-22.2995C83.9512-22.2995 88.0816-13.7144 84.8444-7.67008L18.6821-7.67008C14.668-7.67008 11.373-10.9185 11.373-14.9791C11.373-19.0397 14.6215-22.2882 18.6821-22.2882L37.2558-22.2882L61.0391-63.5081L53.6025-76.4203C51.5722-79.924 52.7784-84.3673 56.2708-86.4089C59.7744-88.4392 64.2178-87.233 66.2594-83.7407L69.4381-78.1376L69.4381-78.1376ZM41.3277-0.222122L34.2738 11.9244C32.2435 15.4281 27.8467 16.5652 24.2852 14.5927C20.8513 12.6209 19.6444 8.16556 21.6169 4.67384L26.8372-4.29402C32.7426-6.19671 37.511-4.80442 41.3277-0.222122L41.3277-0.222122ZM101.679-22.2882L120.694-22.2882C124.708-22.2882 128.003-19.0397 128.003-14.9791C128.003-10.9185 124.754-7.67008 120.694-7.67008L110.136-7.67008L117.202 4.66253C119.232 8.1662 118.026 12.6096 114.533 14.6512C111.03 16.6815 106.586 15.4753 104.545 11.9829C92.5834-8.80718 83.6156-24.3298 77.5825-34.7012C71.4803-45.2588 75.8074-55.8741 80.1345-59.3778C85.0192-51.234 92.1422-38.8316 101.679-22.2882L101.679-22.2882Z"/>
  </g>
  <g id="Semibold-M" transform="matrix(1 0 0 1 1974.24 1126)">
   <path class="multicolor-0:systemBlueColor SFSymbolsPreview007AFF" d="M68.8188-77.9719L72.046-83.6079C74.072-87.0902 78.4475-88.223 82.0047-86.2718C85.4871-84.2459 86.6198-79.8703 84.6686-76.3131L53.495-22.3562L75.986-22.3562C83.2807-22.3562 87.3854-13.8011 84.1739-7.78239L18.2382-7.78239C14.2455-7.78239 10.9592-11.0096 10.9592-15.0615C10.9592-19.1134 14.1863-22.3406 18.2382-22.3406L36.752-22.3406L60.4285-63.3981L53.0218-76.2759C50.9959-79.7583 52.219-84.193 55.6858-86.2346C59.1682-88.2606 63.6029-87.0374 65.6445-83.5707L68.8188-77.9719L68.8188-77.9719ZM40.8196-0.360055L33.7957 11.7522C31.7697 15.2346 27.3941 16.3673 23.837 14.4161C20.4074 12.4274 19.2219 8.0146 21.173 4.51028L26.389-4.42761C32.2645-6.32596 37.0072-4.93801 40.8196-0.360055L40.8196-0.360055ZM100.923-22.3406L119.857-22.3406C123.849-22.3406 127.136-19.1134 127.136-15.0615C127.136-11.0096 123.908-7.78239 119.857-7.78239L109.35-7.78239L116.39 4.49463C118.416 7.97702 117.193 12.4117 113.726 14.4533C110.243 16.4793 105.809 15.2561 103.767 11.7894C91.8573-8.91514 82.9194-24.3822 76.9163-34.7237C70.8228-45.2299 75.1456-55.811 79.4683-59.2934C84.323-51.1583 91.4373-38.8284 100.923-22.3406L100.923-22.3406Z"/>
  </g>
  <g id="Medium-M" transform="matrix(1 0 0 1 1678 1126)">
   <path class="multicolor-0:systemBlueColor SFSymbolsPreview007AFF" d="M68.3493-77.8463L71.5603-83.4628C73.583-86.9291 77.9424-88.0585 81.4963-86.1235C84.9625-84.1008 86.092-79.7414 84.1569-76.1875L53.0709-22.3992L75.497-22.3992C82.7723-22.3992 86.8576-13.8669 83.6655-7.86755L17.9017-7.86755C13.9251-7.86755 10.6453-11.0786 10.6453-15.1239C10.6453-19.1692 13.8564-22.3803 17.9017-22.3803L36.37-22.3803L59.9655-63.3146L52.5816-76.1665C50.5589-79.6327 51.7949-84.0608 55.2422-86.1024C58.7085-88.1251 63.1366-86.8891 65.1782-83.4418L68.3493-77.8463L68.3493-77.8463ZM40.4343-0.464642L33.4331 11.6216C31.4105 15.0878 27.051 16.2173 23.4972 14.2822C20.0709 12.2806 18.9015 7.90014 20.8365 4.38627L26.0492-4.5289C31.9019-6.42396 36.6252-5.0393 40.4343-0.464642L40.4343-0.464642ZM100.35-22.3803L119.222-22.3803C123.198-22.3803 126.478-19.1692 126.478-15.1239C126.478-11.0786 123.267-7.86755 119.222-7.86755L108.754-7.86755L115.774 4.36732C117.797 7.83357 116.561 12.2617 113.114 14.3033C109.647 16.326 105.219 15.0899 103.178 11.6426C91.3067-8.99701 82.3916-24.4219 76.4112-34.7406C70.3243-45.2081 74.6438-55.7631 78.9632-59.2293C83.7952-51.1008 90.9029-38.826 100.35-22.3803L100.35-22.3803Z"/>
  </g>
  <g id="Regular-M" transform="matrix(1 0 0 1 1381.92 1126)">
   <path class="multicolor-0:systemBlueColor SFSymbolsPreview007AFF" d="M67.7368-77.6825L70.9268-83.2737C72.9451-86.7189 77.2835-87.844 80.8331-85.93C84.2783-83.9117 85.4035-79.5733 83.4895-76.0237L52.5177-22.4553L74.8591-22.4553C82.1091-22.4553 86.1691-13.9526 83.0023-7.97862L17.4628-7.97862C13.5072-7.97862 10.236-11.1686 10.236-15.2054C10.236-19.2421 13.426-22.4321 17.4628-22.4321L35.8718-22.4321L59.3617-63.2058L52.0073-76.0237C49.989-79.4689 51.2417-83.8884 54.6637-85.93C58.1089-87.9484 62.5284-86.6956 64.57-83.2737L67.7368-77.6825L67.7368-77.6825ZM39.9318-0.601059L32.9603 11.4512C30.9419 14.8964 26.6035 16.0216 23.0539 14.1076C19.632 12.0892 18.4836 7.75084 20.3976 4.22451L25.6059-4.66102C31.4291-6.55179 36.127-5.17142 39.9318-0.601059L39.9318-0.601059ZM99.6017-22.4321L118.394-22.4321C122.349-22.4321 125.62-19.2421 125.62-15.2054C125.62-11.1686 122.43-7.97862 118.394-7.97862L107.977-7.97862L114.972 4.20127C116.99 7.64647 115.737 12.066 112.315 14.1076C108.87 16.126 104.451 14.8732 102.409 11.4512C90.5886-9.10379 81.7031-24.4737 75.7523-34.7628C69.674-45.1795 73.9892-55.7006 78.3043-59.1458C83.1067-51.0259 90.2058-38.8228 99.6017-22.4321L99.6017-22.4321Z"/>
  </g>
  <g id="Light-M" transform="matrix(1 0 0 1 1085.96 1126)">
   <path class="multicolor-0:systemBlueColor SFSymbolsPreview007AFF" d="M66.9613-77.3128L70.1513-82.8663C72.132-86.3115 76.4704-87.399 79.9823-85.485C83.4275-83.5043 84.515-79.1659 82.601-75.654L51.893-22.5378L74.046-22.5378C81.2583-22.5378 85.2806-14.1104 82.1515-8.17413L17.1018-8.17413C13.1462-8.17413 9.95041-11.3641 9.95041-15.3255C9.95041-19.2869 13.1404-22.4769 17.1018-22.4769L35.3601-22.4769L58.6615-62.9491L51.3826-75.654C49.4019-79.0992 50.617-83.4434 54.0013-85.485C57.4465-87.4656 61.7906-86.2506 63.8322-82.8663L66.9613-77.3128L66.9613-77.3128ZM39.3824-0.834245L32.4862 11.105C30.5055 14.5502 26.1671 15.6377 22.6553 13.7237C19.271 11.743 18.1226 7.40461 20.0366 3.95364L25.2073-4.85653C30.955-6.70961 35.6153-5.36693 39.3824-0.834245L39.3824-0.834245ZM98.5625-22.4769L117.204-22.4769C121.159-22.4769 124.355-19.2869 124.355-15.3255C124.355-11.3641 121.165-8.17413 117.204-8.17413L106.862-8.17413L113.819 3.89272C115.8 7.33792 114.585 11.6821 111.201 13.7237C107.755 15.7044 103.411 14.4893 101.37 11.105C89.6247-9.26161 80.8146-24.5185 74.9392-34.7322C68.9362-45.0736 73.2137-55.4816 77.4912-58.9268C82.2182-50.8823 89.2419-38.7545 98.5625-22.4769L98.5625-22.4769Z"/>
  </g>
  <g id="Thin-M" transform="matrix(1 0 0 1 790.244 1126)">
   <path class="multicolor-0:systemBlueColor SFSymbolsPreview007AFF" d="M65.9357-76.8238L69.1257-82.3275C71.0565-85.7727 75.3949-86.8103 78.857-84.8963C82.3022-82.9655 83.3398-78.6271 81.4258-75.165L51.0667-22.6468L72.9705-22.6468C80.133-22.6468 84.1054-14.3191 81.0262-8.4327L16.6243-8.4327C12.6687-8.4327 9.57265-11.6227 9.57265-15.4844C9.57265-19.3461 12.7627-22.5361 16.6243-22.5361L34.6833-22.5361L57.7356-62.6097L50.5563-75.165C48.6254-78.6102 49.7907-82.8547 53.1251-84.8963C56.5703-86.8271 60.8148-85.6619 62.8564-82.3275L65.9357-76.8238L65.9357-76.8238ZM38.6558-1.14265L31.8593 10.6471C29.9284 14.0923 25.59 15.1299 22.128 13.2159C18.7935 11.2851 17.6451 6.94669 19.5591 3.5954L24.68-5.1151C30.3281-6.91835 34.9385-5.6255 38.6558-1.14265L38.6558-1.14265ZM97.188-22.5361L115.63-22.5361C119.585-22.5361 122.681-19.3461 122.681-15.4844C122.681-11.6227 119.491-8.4327 115.63-8.4327L105.388-8.4327L112.295 3.48464C114.226 6.92984 113.061 11.1743 109.726 13.2159C106.281 15.1468 102.037 13.9815 99.9952 10.6471C88.3499-9.47035 79.6394-24.5777 73.8637-34.6918C67.9604-44.9335 72.1881-55.192 76.4157-58.6372C81.043-50.6923 87.9671-38.6642 97.188-22.5361L97.188-22.5361Z"/>
  </g>
  <g id="Ultralight-M" transform="matrix(1 0 0 1 494.043 1126)">
   <path class="multicolor-0:systemBlueColor SFSymbolsPreview007AFF" d="M65.4103-76.5734L68.6003-82.0515C70.5057-85.4967 74.8441-86.5088 78.2806-84.5948C81.7258-82.6895 82.7379-78.3511 80.8239-74.9146L50.6435-22.7027L72.4197-22.7027C79.5566-22.7027 83.5035-14.4261 80.4498-8.56514L16.3798-8.56514C12.4242-8.56514 9.37917-11.7551 9.37917-15.5658C9.37917-19.3764 12.5692-22.5664 16.3798-22.5664L34.3367-22.5664L57.2613-62.4358L50.1331-74.9146C48.2277-78.3598 49.3675-82.5532 52.6764-84.5948C56.1216-86.5001 60.315-85.3604 62.3566-82.0515L65.4103-76.5734L65.4103-76.5734ZM38.2836-1.30062L31.5382 10.4125C29.6329 13.8577 25.2945 14.8699 21.8579 12.9559C18.549 11.0505 17.4006 6.71215 19.3146 3.41191L24.4099-5.24754C30.007-7.02526 34.5919-5.75794 38.2836-1.30062L38.2836-1.30062ZM96.484-22.5664L114.824-22.5664C118.779-22.5664 121.824-19.3764 121.824-15.5658C121.824-11.7551 118.634-8.56514 114.824-8.56514L104.633-8.56514L111.515 3.27563C113.42 6.72083 112.28 10.9143 108.971 12.9559C105.526 14.8612 101.333 13.7215 99.2912 10.4125C87.697-9.57726 79.0375-24.608 73.3129-34.6711C67.4606-44.8617 71.6627-55.0437 75.8649-58.4889C80.4411-50.595 87.3142-38.618 96.484-22.5664L96.484-22.5664Z"/>
  </g>
  <g id="Black-S" transform="matrix(1 0 0 1 2877.25 696)">
   <path class="multicolor-0:systemBlueColor SFSymbolsPreview007AFF" d="M55.95-69.2611L58.55-73.7611C60.15-76.5611 63.65-77.4611 66.45-75.8611C69.25-74.2611 70.15-70.7611 68.55-67.9611L43.75-24.9611L61.65-24.9611C67.45-24.9611 70.75-18.1611 68.15-13.3611L15.75-13.3611C12.55-13.3611 9.95-15.9611 9.95-19.1611C9.95-22.3611 12.55-24.9611 15.75-24.9611L30.45-24.9611L49.35-57.6611L43.45-67.8611C41.85-70.6611 42.75-74.1611 45.55-75.7611C48.35-77.3611 51.85-76.4611 53.45-73.6611L55.95-69.2611L55.95-69.2611ZM33.65-7.46111L28.05 2.13889C26.45 4.93889 22.95 5.83889 20.15 4.23889C17.45 2.73889 16.45-0.861111 18.05-3.56111L22.15-10.6611C26.85-12.1611 30.65-11.0611 33.65-7.46111L33.65-7.46111ZM81.55-24.9611L96.65-24.9611C99.85-24.9611 102.45-22.3611 102.45-19.1611C102.45-15.9611 99.85-13.3611 96.65-13.3611L88.25-13.3611L93.85-3.56111C95.45-0.761111 94.55 2.73889 91.75 4.33889C88.95 5.93889 85.45 5.03889 83.85 2.23889C74.35-14.2611 67.25-26.5611 62.45-34.7611C57.65-43.1611 61.05-51.5611 64.45-54.3611C68.35-47.9611 73.95-38.0611 81.55-24.9611L81.55-24.9611Z"/>
  </g>
  <g id="Heavy-S" transform="matrix(1 0 0 1 2581.14 696)">
   <path class="multicolor-0:systemBlueColor SFSymbolsPreview007AFF" d="M55.3623-69.1247L57.9387-73.6011C59.5387-76.3775 63.0151-77.2775 65.8151-75.7011C68.5915-74.1011 69.4915-70.6247 67.9151-67.8247L43.2095-25.0135L61.0387-25.0135C66.8151-25.0135 70.0915-18.2371 67.5151-13.4607L15.3039-13.4607C12.1275-13.4607 9.52752-16.0371 9.52752-19.2371C9.52752-22.4371 12.1039-25.0135 15.3039-25.0135L29.9567-25.0135L48.7623-57.5719L42.8859-67.7483C41.2859-70.5247 42.2095-74.0247 44.9859-75.6247C47.7623-77.2247 51.2623-76.3011 52.8623-73.5247L55.3623-69.1247L55.3623-69.1247ZM33.1567-7.58428L27.5803 1.99212C25.9803 4.76851 22.5039 5.66851 19.7039 4.09212C17.0039 2.56851 16.0275-0.984281 17.6039-3.70788L21.7039-10.7843C26.3803-12.2843 30.1567-11.1843 33.1567-7.58428L33.1567-7.58428ZM80.8443-25.0135L95.8735-25.0135C99.0499-25.0135 101.65-22.4371 101.65-19.2371C101.65-16.0371 99.0735-13.4607 95.8735-13.4607L87.5207-13.4607L93.0971-3.70788C94.6971-0.931485 93.7735 2.56851 90.9971 4.16851C88.2207 5.76851 84.7207 4.84491 83.1207 2.06851C73.6679-14.3607 66.5915-26.6135 61.8151-34.7899C57.0151-43.1427 60.4151-51.5191 63.8151-54.2955C67.6915-47.8955 73.2915-38.0663 80.8443-25.0135L80.8443-25.0135Z"/>
  </g>
  <g id="Bold-S" transform="matrix(1 0 0 1 2285.1 696)">
   <path class="multicolor-0:systemBlueColor SFSymbolsPreview007AFF" d="M54.705-68.972L57.255-73.422C58.855-76.172 62.305-77.072 65.105-75.522C67.855-73.922 68.755-70.472 67.205-67.672L42.605-25.072L60.355-25.072C66.105-25.072 69.355-18.322 66.805-13.572L14.805-13.572C11.655-13.572 9.055-16.122 9.055-19.322C9.055-22.522 11.605-25.072 14.805-25.072L29.405-25.072L48.105-57.472L42.255-67.622C40.655-70.372 41.605-73.872 44.355-75.472C47.105-77.072 50.605-76.122 52.205-73.372L54.705-68.972L54.705-68.972ZM32.605-7.72204L27.055 1.82796C25.455 4.57796 22.005 5.47796 19.205 3.92796C16.505 2.37796 15.555-1.12204 17.105-3.87204L21.205-10.922C25.855-12.422 29.605-11.322 32.605-7.72204L32.605-7.72204ZM80.055-25.072L95.005-25.072C98.155-25.072 100.755-22.522 100.755-19.322C100.755-16.122 98.205-13.572 95.005-13.572L86.705-13.572L92.255-3.87204C93.855-1.12204 92.905 2.37796 90.155 3.97796C87.405 5.57796 83.905 4.62796 82.305 1.87796C72.905-14.472 65.855-26.672 61.105-34.822C56.305-43.122 59.705-51.472 63.105-54.222C66.955-47.822 72.555-38.072 80.055-25.072L80.055-25.072Z"/>
  </g>
  <g id="Semibold-S" transform="matrix(1 0 0 1 1988.86 696)">
   <path class="multicolor-0:systemBlueColor SFSymbolsPreview007AFF" d="M54.2518-68.8668L56.7836-73.2986C58.3836-76.0304 61.8154-76.9304 64.6154-75.3986C67.3472-73.7986 68.2472-70.3668 66.7154-67.5668L42.1882-25.1124L59.8836-25.1124C65.6154-25.1124 68.8472-18.3806 66.3154-13.6488L14.461-13.6488C11.3292-13.6488 8.72922-16.1806 8.72922-19.3806C8.72922-22.5806 11.261-25.1124 14.461-25.1124L29.0246-25.1124L47.6518-57.4032L41.82-67.535C40.22-70.2668 41.1882-73.7668 43.92-75.3668C46.6518-76.9668 50.1518-75.9986 51.7518-73.2668L54.2518-68.8668L54.2518-68.8668ZM32.2246-7.81702L26.6928 1.71478C25.0928 4.44658 21.661 5.34658 18.861 3.81478C16.161 2.24658 15.2292-1.21702 16.761-3.98522L20.861-11.017C25.4928-12.517 29.2246-11.417 32.2246-7.81702L32.2246-7.81702ZM79.5108-25.1124L94.4062-25.1124C97.538-25.1124 100.138-22.5806 100.138-19.3806C100.138-16.1806 97.6062-13.6488 94.4062-13.6488L86.1426-13.6488L91.6744-3.98522C93.2744-1.25342 92.3062 2.24658 89.5744 3.84658C86.8426 5.44658 83.3426 4.47838 81.7426 1.74658C72.379-14.5488 65.3472-26.7124 60.6154-34.8442C55.8154-43.1078 59.2154-51.4396 62.6154-54.1714C66.4472-47.7714 72.0472-38.076 79.5108-25.1124L79.5108-25.1124Z"/>
  </g>
  <g id="Medium-S" transform="matrix(1 0 0 1 1692.5 696)">
   <path class="multicolor-0:systemBlueColor SFSymbolsPreview007AFF" d="M53.9082-68.787L56.4262-73.205C58.0262-75.923 61.4442-76.823 64.2442-75.305C66.9622-73.705 67.8622-70.287 66.3442-67.487L41.8722-25.143L59.5262-25.143C65.2442-25.143 68.4622-18.425 65.9442-13.707L14.2002-13.707C11.0822-13.707 8.4822-16.225 8.4822-19.425C8.4822-22.625 11.0002-25.143 14.2002-25.143L28.7362-25.143L47.3082-57.351L41.4902-67.469C39.8902-70.187 40.8722-73.687 43.5902-75.287C46.3082-76.887 49.8082-75.905 51.4082-73.187L53.9082-68.787L53.9082-68.787ZM31.9362-7.88904L26.4182 1.62896C24.8182 4.34696 21.4002 5.24696 18.6002 3.72896C15.9002 2.14696 14.9822-1.28904 16.5002-4.07104L20.6002-11.089C25.2182-12.589 28.9362-11.489 31.9362-7.88904L31.9362-7.88904ZM79.0982-25.143L93.9522-25.143C97.0702-25.143 99.6702-22.625 99.6702-19.425C99.6702-16.225 97.1522-13.707 93.9522-13.707L85.7162-13.707L91.2342-4.07104C92.8342-1.35304 91.8522 2.14696 89.1342 3.74696C86.4162 5.34696 82.9162 4.36496 81.3162 1.64696C71.9802-14.607 64.9622-26.743 60.2442-34.861C55.4442-43.097 58.8442-51.415 62.2442-54.133C66.0622-47.733 71.6622-38.079 79.0982-25.143L79.0982-25.143Z"/>
  </g>
  <g id="Regular-S" transform="matrix(1 0 0 1 1396.24 696)">
   <path class="multicolor-0:systemBlueColor SFSymbolsPreview007AFF" d="M53.46-68.683L55.96-73.083C57.56-75.783 60.96-76.683 63.76-75.183C66.46-73.583 67.36-70.183 65.86-67.383L41.46-25.183L59.06-25.183C64.76-25.183 67.96-18.483 65.46-13.783L13.86-13.783C10.76-13.783 8.16-16.283 8.16-19.483C8.16-22.683 10.66-25.183 13.86-25.183L28.36-25.183L46.86-57.283L41.06-67.383C39.46-70.083 40.46-73.583 43.16-75.183C45.86-76.783 49.36-75.783 50.96-73.083L53.46-68.683L53.46-68.683ZM31.56-7.98297L26.06 1.51703C24.46 4.21703 21.06 5.11703 18.26 3.61703C15.56 2.01703 14.66-1.38297 16.16-4.18297L20.26-11.183C24.86-12.683 28.56-11.583 31.56-7.98297L31.56-7.98297ZM78.56-25.183L93.36-25.183C96.46-25.183 99.06-22.683 99.06-19.483C99.06-16.283 96.56-13.783 93.36-13.783L85.16-13.783L90.66-4.18297C92.26-1.48297 91.26 2.01703 88.56 3.61703C85.86 5.21703 82.36 4.21703 80.76 1.51703C71.46-14.683 64.46-26.783 59.76-34.883C54.96-43.083 58.36-51.383 61.76-54.083C65.56-47.683 71.16-38.083 78.56-25.183L78.56-25.183Z"/>
  </g>
  <g id="Light-S" transform="matrix(1 0 0 1 1100.2 696)">
   <path class="multicolor-0:systemBlueColor SFSymbolsPreview007AFF" d="M52.774-68.3559L55.274-72.7226C56.8407-75.4226 60.2407-76.2893 63.0073-74.7893C65.7073-73.2226 66.574-69.8226 65.074-67.0559L40.9073-25.2559L58.3407-25.2559C64.0073-25.2559 67.174-18.6226 64.7073-13.9559L13.5407-13.9559C10.4407-13.9559 7.90733-16.4559 7.90733-19.5893C7.90733-22.7226 10.4073-25.2226 13.5407-25.2226L27.9073-25.2226L46.2407-57.0559L40.5073-67.0559C38.9407-69.7559 39.9073-73.1893 42.574-74.7893C45.274-76.3559 48.7073-75.3893 50.3073-72.7226L52.774-68.3559L52.774-68.3559ZM31.074-8.18925L25.6407 1.21075C24.074 3.91075 20.674 4.77742 17.9073 3.27742C15.2407 1.71075 14.3407-1.68925 15.8407-4.42258L19.9073-11.3559C24.4407-12.8226 28.1073-11.7559 31.074-8.18925L31.074-8.18925ZM77.6407-25.2226L92.3073-25.2226C95.4073-25.2226 97.9407-22.7226 97.9407-19.5893C97.9407-16.4559 95.4407-13.9559 92.3073-13.9559L84.174-13.9559L89.6407-4.45592C91.2073-1.75592 90.2407 1.67742 87.574 3.27742C84.874 4.84408 81.4407 3.87742 79.8407 1.21075C70.6073-14.8226 63.674-26.8226 59.0407-34.8559C54.3073-42.9893 57.674-51.1893 61.0407-53.8893C64.774-47.5559 70.3073-38.0226 77.6407-25.2226L77.6407-25.2226Z"/>
  </g>
  <g id="Thin-S" transform="matrix(1 0 0 1 804.371 696)">
   <path class="multicolor-0:systemBlueColor SFSymbolsPreview007AFF" d="M51.8667-67.9234L54.3667-72.2459C55.8893-74.9459 59.2893-75.7685 62.0119-74.2685C64.7119-72.7459 65.5345-69.3459 64.0345-66.6234L40.1764-25.3524L57.3893-25.3524C63.0119-25.3524 66.1345-18.8072 63.7119-14.1847L13.1183-14.1847C10.0183-14.1847 7.57316-16.6847 7.57316-19.7298C7.57316-22.775 10.0732-25.275 13.1183-25.275L27.3086-25.275L45.4215-56.7556L39.7764-66.6234C38.2538-69.3234 39.1764-72.6685 41.799-74.2685C44.499-75.7911 47.8441-74.8685 49.4441-72.2459L51.8667-67.9234L51.8667-67.9234ZM30.4312-8.46207L25.0861 0.80567C23.5635 3.50567 20.1635 4.32825 17.4409 2.82825C14.8183 1.30567 13.9183-2.09433 15.4183-4.73949L19.4409-11.5847C23.8861-13.0072 27.5086-11.9847 30.4312-8.46207L30.4312-8.46207ZM76.4248-25.275L90.9151-25.275C94.0151-25.275 96.4603-22.775 96.4603-19.7298C96.4603-16.6847 93.9603-14.1847 90.9151-14.1847L82.8699-14.1847L88.2925-4.81691C89.8151-2.11691 88.8925 1.22825 86.2699 2.82825C83.5699 4.35083 80.2248 3.42825 78.6248 0.80567C69.4796-15.0072 62.6345-26.875 58.0893-34.8201C53.4441-42.8653 56.7667-50.933 60.0893-53.633C63.7345-47.3879 69.1796-37.9427 76.4248-25.275L76.4248-25.275Z"/>
  </g>
  <g id="Ultralight-S" transform="matrix(1 0 0 1 508.111 696)">
   <path class="multicolor-0:systemBlueColor SFSymbolsPreview007AFF" d="M51.402-67.7018L53.902-72.0018C55.402-74.7018 58.802-75.5018 61.502-74.0018C64.202-72.5018 65.002-69.1018 63.502-66.4018L39.802-25.4018L56.902-25.4018C62.502-25.4018 65.602-18.9018 63.202-14.3018L12.902-14.3018C9.802-14.3018 7.402-16.8018 7.402-19.8018C7.402-22.8018 9.902-25.3018 12.902-25.3018L27.002-25.3018L45.002-56.6018L39.402-66.4018C37.902-69.1018 38.802-72.4018 41.402-74.0018C44.102-75.5018 47.402-74.6018 49.002-72.0018L51.402-67.7018L51.402-67.7018ZM30.102-8.60181L24.802 0.598191C23.302 3.29819 19.902 4.09819 17.202 2.59819C14.602 1.09819 13.702-2.30181 15.202-4.90181L19.202-11.7018C23.602-13.1018 27.202-12.1018 30.102-8.60181L30.102-8.60181ZM75.802-25.3018L90.202-25.3018C93.302-25.3018 95.702-22.8018 95.702-19.8018C95.702-16.8018 93.202-14.3018 90.202-14.3018L82.202-14.3018L87.602-5.00181C89.102-2.30181 88.202 0.998191 85.602 2.59819C82.902 4.09819 79.602 3.19819 78.002 0.598191C68.902-15.1018 62.102-26.9018 57.602-34.8018C53.002-42.8018 56.302-50.8018 59.602-53.5018C63.202-47.3018 68.602-37.9018 75.802-25.3018L75.802-25.3018Z"/>
  </g>
 </g>
</svg>
